<svg version="1.1" id="Layer_1" xmlns="http://www.w3.org/2000/svg" xmlns:xlink="http://www.w3.org/1999/xlink" x="0px" y="0px"
	 width="48" height="48" viewBox="0 0 202 202" enable-background="new 0 0 202 202" xml:space="preserve">

<path fill="#000000" opacity="1.000000" stroke="none" 
	d="
M116.000000,203.000000 
	C77.356964,203.000000 39.213924,203.000000 1.035444,203.000000 
	C1.035444,135.731995 1.035444,68.463974 1.035444,1.097975 
	C68.226204,1.097975 135.452591,1.097975 202.839493,1.097975 
	C202.839493,68.333023 202.839493,135.666473 202.839493,203.000000 
	C174.130920,203.000000 145.315460,203.000000 116.000000,203.000000 
M77.017540,66.364113 
	C77.397095,65.905632 77.683884,65.222099 78.169853,65.021782 
	C88.600998,60.722057 99.048767,56.462337 109.512436,52.242275 
	C110.548058,51.824600 111.731155,51.788624 112.805222,51.447639 
	C119.513206,49.318054 126.116913,46.765526 132.941162,45.128418 
	C137.829773,43.955662 143.046890,44.214043 148.034012,43.351528 
	C149.489685,43.099770 150.658844,41.191238 151.959320,40.042114 
	C150.132538,39.298256 148.233047,37.779392 146.491409,37.942822 
	C138.345322,38.707226 130.261108,40.620171 122.120354,40.838409 
	C109.671555,41.172142 97.837387,44.029663 86.036209,47.465618 
	C83.409340,48.230442 80.558594,48.515556 78.158371,49.716152 
	C70.485626,53.554081 62.976162,57.718433 55.284866,61.820107 
	C54.788094,60.449486 54.173828,59.407642 54.055676,58.312279 
	C53.615295,54.229660 53.650257,50.069736 52.883408,46.057991 
	C52.413548,43.599937 51.401531,40.082169 49.606709,39.247730 
	C42.841579,36.102528 35.658489,33.854763 28.625006,31.289865 
	C27.451475,30.861914 26.253229,30.493834 25.049953,30.156826 
	C21.260843,29.095587 17.490828,27.373096 13.661974,27.223518 
	C10.238188,27.089766 6.789851,28.932619 7.053361,33.416374 
	C7.301332,37.635715 4.904611,43.017056 11.924918,44.524979 
	C19.406454,46.131969 26.819426,48.077568 34.210884,50.066525 
	C35.530167,50.421528 37.319046,51.488754 37.657188,52.601936 
	C39.030499,57.122894 40.170712,61.749496 40.931381,66.413071 
	C41.928371,72.525482 42.485931,78.709572 43.305302,85.462883 
	C46.446957,84.580147 49.171356,83.814644 51.968140,83.785835 
	C48.305790,86.691154 44.512985,89.448601 41.012131,92.536987 
	C35.957401,96.996170 31.223608,101.819893 26.156099,106.263680 
	C18.085703,113.340767 10.829419,121.113457 4.915988,130.086395 
	C4.298763,131.022949 4.176754,132.285858 3.535096,134.313309 
	C5.957139,133.810791 7.833590,133.978333 8.840329,133.122650 
	C15.603116,127.374542 22.403973,121.638870 28.771425,115.464905 
	C41.078602,103.531693 56.269115,95.956970 70.689209,87.234703 
	C74.569588,84.887581 79.129051,83.674164 83.348206,81.873352 
	C88.729805,79.576385 94.082397,77.211449 99.777122,74.732307 
	C99.777122,78.464180 99.777122,81.577072 99.777122,84.030724 
	C91.947235,87.126099 84.400566,89.759315 77.166702,93.075005 
	C70.863182,95.964279 64.649963,99.234985 58.918411,103.108849 
	C56.113457,105.004662 50.356026,105.650307 52.811012,113.004425 
	C67.598793,107.295494 82.064621,100.760567 97.891129,97.761383 
	C97.520218,100.857719 97.218239,103.100777 96.990028,105.351311 
	C96.678223,108.426262 95.058380,110.177429 92.038910,110.978661 
	C80.415977,114.062828 69.362976,118.422424 59.086426,124.847397 
	C52.023964,129.262909 44.389698,132.758102 37.256645,137.070908 
	C35.703873,138.009750 35.198242,140.680496 34.210331,142.553574 
	C36.150711,142.874435 38.369888,143.964630 39.982239,143.380341 
	C46.289848,141.094452 52.307671,138.008987 58.615143,135.722641 
	C68.785339,132.036118 79.099457,128.746628 89.352783,125.289436 
	C89.772942,125.931641 90.193092,126.573837 90.613251,127.216042 
	C88.379799,129.794083 86.634605,133.394791 83.813377,134.741745 
	C77.533806,137.739853 70.535210,139.211349 64.183807,142.087189 
	C60.229446,143.877670 55.249329,145.518448 55.049961,151.831299 
	C56.267490,151.831299 57.434410,152.078674 58.451218,151.792572 
	C67.413200,149.270859 76.245689,146.176819 85.325272,144.221756 
	C92.183189,142.745056 99.335159,142.303833 106.377235,142.088806 
	C117.364075,141.753372 128.397644,141.512375 139.356049,142.163177 
	C147.289597,142.634323 155.117340,144.734299 163.032745,145.809967 
	C164.395050,145.995102 166.523468,145.088943 167.309616,143.983810 
	C168.767548,141.934265 169.718491,139.436279 170.489548,137.001221 
	C173.740417,126.734604 176.782272,116.401863 180.024612,106.132477 
	C183.269302,95.855652 186.695663,85.636330 189.978668,75.371414 
	C192.704575,66.848373 195.319611,58.289925 198.024033,49.759918 
	C198.772766,47.398304 199.665115,45.082226 200.754745,42.001099 
	C190.644821,42.001099 181.800629,41.484646 173.045731,42.147511 
	C164.429260,42.799904 155.942429,45.061928 147.328598,45.875454 
	C134.174545,47.117775 121.631096,50.553555 109.310768,55.048702 
	C102.158035,57.658421 95.054062,60.401520 87.919731,63.062038 
	C84.231918,64.437286 80.525742,65.763313 77.017540,66.364113 
M92.998611,171.221390 
	C92.985825,162.393723 88.878128,156.868164 81.037041,155.131042 
	C74.363213,153.652512 68.470276,157.027023 64.782173,164.439148 
	C60.605869,172.832428 67.224220,184.346481 76.591324,184.983719 
	C84.908585,185.549561 89.474319,181.942947 92.998611,171.221390 
M141.974838,154.006287 
	C137.902527,154.265854 133.502304,153.636810 129.833786,154.990570 
	C124.150299,157.087936 121.555634,170.595215 125.006210,176.050751 
	C128.696548,181.885345 134.270798,182.276474 140.361877,182.063019 
	C145.984390,181.866013 148.690613,177.346619 150.781525,173.863602 
	C155.207840,166.490311 150.908707,157.125305 141.974838,154.006287 
z"/>
<path fill="#F53838" opacity="1.000000" stroke="none" 
	d="
M76.827866,67.111580 
	C80.525742,65.763313 84.231918,64.437286 87.919731,63.062038 
	C95.054062,60.401520 102.158035,57.658421 109.310768,55.048702 
	C121.631096,50.553555 134.174545,47.117775 147.328598,45.875454 
	C155.942429,45.061928 164.429260,42.799904 173.045731,42.147511 
	C181.800629,41.484646 190.644821,42.001099 200.754745,42.001099 
	C199.665115,45.082226 198.772766,47.398304 198.024033,49.759918 
	C195.319611,58.289925 192.704575,66.848373 189.978668,75.371414 
	C186.695663,85.636330 183.269302,95.855652 180.024612,106.132477 
	C176.782272,116.401863 173.740417,126.734604 170.489548,137.001221 
	C169.718491,139.436279 168.767548,141.934265 167.309616,143.983810 
	C166.523468,145.088943 164.395050,145.995102 163.032745,145.809967 
	C155.117340,144.734299 147.289597,142.634323 139.356049,142.163177 
	C128.397644,141.512375 117.364075,141.753372 106.377235,142.088806 
	C99.335159,142.303833 92.183189,142.745056 85.325272,144.221756 
	C76.245689,146.176819 67.413200,149.270859 58.451218,151.792572 
	C57.434410,152.078674 56.267490,151.831299 55.049961,151.831299 
	C55.249329,145.518448 60.229446,143.877670 64.183807,142.087189 
	C70.535210,139.211349 77.533806,137.739853 83.813377,134.741745 
	C86.634605,133.394791 88.379799,129.794083 90.613251,127.216042 
	C90.193092,126.573837 89.772942,125.931641 89.352783,125.289436 
	C79.099457,128.746628 68.785339,132.036118 58.615143,135.722641 
	C52.307671,138.008987 46.289848,141.094452 39.982239,143.380341 
	C38.369888,143.964630 36.150711,142.874435 34.210327,142.553574 
	C35.198242,140.680496 35.703873,138.009750 37.256645,137.070908 
	C44.389698,132.758102 52.023964,129.262909 59.086426,124.847397 
	C69.362976,118.422424 80.415977,114.062828 92.038910,110.978661 
	C95.058380,110.177429 96.678223,108.426262 96.990028,105.351311 
	C97.218239,103.100777 97.520218,100.857719 97.891129,97.761383 
	C82.064621,100.760567 67.598793,107.295494 52.811012,113.004425 
	C50.356026,105.650307 56.113457,105.004662 58.918411,103.108849 
	C64.649963,99.234985 70.863182,95.964279 77.166702,93.075005 
	C84.400566,89.759315 91.947235,87.126099 99.777122,84.030724 
	C99.777122,81.577072 99.777122,78.464180 99.777122,74.732307 
	C94.082397,77.211449 88.729805,79.576385 83.348206,81.873352 
	C79.129051,83.674164 74.569588,84.887581 70.689209,87.234703 
	C56.269115,95.956970 41.078602,103.531693 28.771425,115.464905 
	C22.403973,121.638870 15.603116,127.374542 8.840329,133.122650 
	C7.833590,133.978333 5.957139,133.810791 3.535096,134.313309 
	C4.176754,132.285858 4.298763,131.022949 4.915988,130.086395 
	C10.829419,121.113457 18.085703,113.340767 26.156099,106.263680 
	C31.223608,101.819893 35.957401,96.996170 41.012131,92.536987 
	C44.512985,89.448601 48.305790,86.691154 52.136978,83.233368 
	C52.556858,82.412842 52.807896,82.144783 53.444363,81.923325 
	C56.172909,80.631149 60.180489,81.335258 59.997505,76.949402 
	C59.973656,76.973503 59.925117,77.020859 60.189468,77.369621 
	C62.658707,76.123772 64.863594,74.529167 67.031937,72.966324 
	C66.995384,72.998077 66.921890,73.061142 67.314880,73.021530 
	C70.237427,72.089439 72.876076,71.409744 75.241409,70.196983 
	C76.153847,69.729164 76.445518,68.050644 76.973114,66.971848 
	C76.926208,67.019974 76.827866,67.111580 76.827866,67.111580 
M165.920502,95.186546 
	C166.270233,92.636406 166.619965,90.086266 167.040131,87.022537 
	C159.647217,87.370712 152.606308,87.636536 145.580063,88.116760 
	C144.705292,88.176537 143.298370,89.278938 143.178452,90.058304 
	C142.592880,93.864128 142.360382,97.724289 141.962387,102.001961 
	C147.657425,102.001961 152.819321,101.620537 157.897125,102.110466 
	C162.862076,102.589500 165.279419,100.848724 165.920502,95.186546 
M146.320053,63.982349 
	C143.947006,63.982349 141.573944,63.982349 139.263000,63.982349 
	C140.565704,67.414940 141.599838,70.139908 142.569443,72.694801 
	C151.908066,72.114777 161.085159,71.727737 170.204742,70.784531 
	C171.600327,70.640190 172.997910,68.066788 173.889175,66.353874 
	C174.485916,65.207024 174.189285,63.595333 174.350067,61.406700 
	C165.177643,62.248661 156.200317,63.072712 146.320053,63.982349 
M110.941071,99.061050 
	C110.141777,101.476082 109.342484,103.891106 108.509445,106.408073 
	C113.596077,105.864014 117.628944,105.297424 121.681526,105.032761 
	C126.979294,104.686783 129.691040,102.140701 130.013992,96.938797 
	C130.129639,95.076187 130.410797,93.223862 130.626221,91.278236 
	C125.348770,91.883133 120.213104,92.349144 115.120468,93.105026 
	C112.402184,93.508492 110.184952,94.752373 110.941071,99.061050 
M116.148407,78.560989 
	C119.465889,77.856232 122.804924,77.238953 126.096321,76.428307 
	C132.703613,74.801003 132.937469,74.324150 131.180923,66.475197 
	C123.491440,68.260475 115.808327,70.044273 107.613518,71.946869 
	C108.309334,75.426102 108.857567,78.167397 109.408371,80.921532 
	C111.846153,80.336288 113.864777,79.851669 116.148407,78.560989 
M156.921646,118.000710 
	C151.278290,118.000526 145.634811,117.975143 139.991638,118.007385 
	C134.553253,118.038460 132.037369,120.579941 131.433319,125.999672 
	C135.427811,125.999672 139.464020,126.001472 143.500229,125.999146 
	C147.151779,125.997040 150.854752,126.345284 154.431900,125.827049 
	C156.071976,125.589462 157.945160,123.911636 158.795761,122.378319 
	C159.335419,121.405510 158.186859,119.496162 156.921646,118.000710 
M101.236015,130.296631 
	C104.992760,129.864655 108.740944,129.183594 112.508080,129.054184 
	C119.647636,128.808945 119.977623,128.651398 121.351799,120.894257 
	C112.526337,121.617157 103.117294,120.466858 97.813393,130.830856 
	C99.026787,130.830856 99.811493,130.830856 101.236015,130.296631 
z"/>
<path fill="#F53838" opacity="1.000000" stroke="none" 
	d="
M53.058937,81.876724 
	C52.807896,82.144783 52.556858,82.412842 52.100784,82.865021 
	C49.171356,83.814644 46.446957,84.580147 43.305302,85.462883 
	C42.485931,78.709572 41.928371,72.525482 40.931381,66.413071 
	C40.170712,61.749496 39.030499,57.122894 37.657188,52.601936 
	C37.319046,51.488754 35.530167,50.421528 34.210884,50.066525 
	C26.819426,48.077568 19.406454,46.131969 11.924918,44.524979 
	C4.904611,43.017056 7.301332,37.635715 7.053361,33.416374 
	C6.789851,28.932619 10.238188,27.089766 13.661974,27.223518 
	C17.490828,27.373096 21.260843,29.095587 25.049953,30.156826 
	C26.253229,30.493834 27.451475,30.861914 28.625006,31.289865 
	C35.658489,33.854763 42.841579,36.102528 49.606709,39.247730 
	C51.401531,40.082169 52.413548,43.599937 52.883408,46.057991 
	C53.650257,50.069736 53.615295,54.229660 54.055676,58.312279 
	C54.173828,59.407642 54.788094,60.449486 55.284866,61.820107 
	C62.976162,57.718433 70.485626,53.554081 78.158371,49.716152 
	C80.558594,48.515556 83.409340,48.230442 86.036209,47.465618 
	C97.837387,44.029663 109.671555,41.172142 122.120354,40.838409 
	C130.261108,40.620171 138.345322,38.707226 146.491409,37.942822 
	C148.233047,37.779392 150.132538,39.298256 151.959320,40.042114 
	C150.658844,41.191238 149.489685,43.099770 148.034012,43.351528 
	C143.046890,44.214043 137.829773,43.955662 132.941162,45.128418 
	C126.116913,46.765526 119.513206,49.318054 112.805222,51.447639 
	C111.731155,51.788624 110.548058,51.824600 109.512436,52.242275 
	C99.048767,56.462337 88.600998,60.722057 78.169853,65.021782 
	C77.683884,65.222099 77.397095,65.905632 76.922699,66.737846 
	C76.827866,67.111580 76.926208,67.019974 76.600220,67.022713 
	C73.154930,69.034477 68.379669,68.477577 66.921890,73.061142 
	C66.921890,73.061142 66.995384,72.998077 66.645569,72.997307 
	C64.172211,74.337975 62.048660,75.679413 59.925117,77.020859 
	C59.925117,77.020859 59.973656,76.973503 59.638306,76.987579 
	C57.221619,78.626678 55.140274,80.251701 53.058937,81.876724 
z"/>
<path fill="#F53838" opacity="1.000000" stroke="none" 
	d="
M92.969070,171.645615 
	C89.474319,181.942947 84.908585,185.549561 76.591324,184.983719 
	C67.224220,184.346481 60.605869,172.832428 64.782173,164.439148 
	C68.470276,157.027023 74.363213,153.652512 81.037041,155.131042 
	C88.878128,156.868164 92.985825,162.393723 92.969070,171.645615 
z"/>
<path fill="#F53838" opacity="1.000000" stroke="none" 
	d="
M142.412201,154.023224 
	C150.908707,157.125305 155.207840,166.490311 150.781525,173.863602 
	C148.690613,177.346619 145.984390,181.866013 140.361877,182.063019 
	C134.270798,182.276474 128.696548,181.885345 125.006210,176.050751 
	C121.555634,170.595215 124.150299,157.087936 129.833786,154.990570 
	C133.502304,153.636810 137.902527,154.265854 142.412201,154.023224 
z"/>
<path fill="#000000" opacity="1.000000" stroke="none" 
	d="
M165.732727,95.569946 
	C165.279419,100.848724 162.862076,102.589500 157.897125,102.110466 
	C152.819321,101.620537 147.657425,102.001961 141.962387,102.001961 
	C142.360382,97.724289 142.592880,93.864128 143.178452,90.058304 
	C143.298370,89.278938 144.705292,88.176537 145.580063,88.116760 
	C152.606308,87.636536 159.647217,87.370712 167.040131,87.022537 
	C166.619965,90.086266 166.270233,92.636406 165.732727,95.569946 
z"/>
<path fill="#000000" opacity="1.000000" stroke="none" 
	d="
M146.771515,63.939556 
	C156.200317,63.072712 165.177643,62.248661 174.350067,61.406700 
	C174.189285,63.595333 174.485916,65.207024 173.889175,66.353874 
	C172.997910,68.066788 171.600327,70.640190 170.204742,70.784531 
	C161.085159,71.727737 151.908066,72.114777 142.569443,72.694801 
	C141.599838,70.139908 140.565704,67.414940 139.263000,63.982349 
	C141.573944,63.982349 143.947006,63.982349 146.771515,63.939556 
z"/>
<path fill="#000000" opacity="1.000000" stroke="none" 
	d="
M110.972511,98.638245 
	C110.184952,94.752373 112.402184,93.508492 115.120468,93.105026 
	C120.213104,92.349144 125.348770,91.883133 130.626221,91.278236 
	C130.410797,93.223862 130.129639,95.076187 130.013992,96.938797 
	C129.691040,102.140701 126.979294,104.686783 121.681526,105.032761 
	C117.628944,105.297424 113.596077,105.864014 108.509445,106.408073 
	C109.342484,103.891106 110.141777,101.476082 110.972511,98.638245 
z"/>
<path fill="#000000" opacity="1.000000" stroke="none" 
	d="
M116.015907,78.964020 
	C113.864777,79.851669 111.846153,80.336288 109.408371,80.921532 
	C108.857567,78.167397 108.309334,75.426102 107.613518,71.946869 
	C115.808327,70.044273 123.491440,68.260475 131.180923,66.475197 
	C132.937469,74.324150 132.703613,74.801003 126.096321,76.428307 
	C122.804924,77.238953 119.465889,77.856232 116.015907,78.964020 
z"/>
<path fill="#000000" opacity="1.000000" stroke="none" 
	d="
M157.358521,118.003769 
	C158.186859,119.496162 159.335419,121.405510 158.795761,122.378319 
	C157.945160,123.911636 156.071976,125.589462 154.431900,125.827049 
	C150.854752,126.345284 147.151779,125.997040 143.500229,125.999146 
	C139.464020,126.001472 135.427811,125.999672 131.433319,125.999672 
	C132.037369,120.579941 134.553253,118.038460 139.991638,118.007385 
	C145.634811,117.975143 151.278290,118.000526 157.358521,118.003769 
z"/>
<path fill="#000000" opacity="1.000000" stroke="none" 
	d="
M100.916107,130.563751 
	C99.811493,130.830856 99.026787,130.830856 97.813393,130.830856 
	C103.117294,120.466858 112.526337,121.617157 121.351799,120.894257 
	C119.977623,128.651398 119.647636,128.808945 112.508080,129.054184 
	C108.740944,129.183594 104.992760,129.864655 100.916107,130.563751 
z"/>
<path fill="#000000" opacity="1.000000" stroke="none" 
	d="
M67.314880,73.021530 
	C68.379669,68.477577 73.154930,69.034477 76.647125,66.974594 
	C76.445518,68.050644 76.153847,69.729164 75.241409,70.196983 
	C72.876076,71.409744 70.237427,72.089439 67.314880,73.021530 
z"/>
<path fill="#000000" opacity="1.000000" stroke="none" 
	d="
M53.444359,81.923325 
	C55.140274,80.251701 57.221619,78.626678 59.662155,76.963486 
	C60.180489,81.335258 56.172909,80.631149 53.444359,81.923325 
z"/>
<path fill="#000000" opacity="1.000000" stroke="none" 
	d="
M60.189468,77.369614 
	C62.048660,75.679413 64.172211,74.337975 66.682114,72.965546 
	C64.863594,74.529167 62.658707,76.123772 60.189468,77.369614 
z"/>
</svg>