<svg width="39" height="38" viewBox="0 0 39 38" fill="none" xmlns="http://www.w3.org/2000/svg">
<path fill-rule="evenodd" clip-rule="evenodd" d="M25.9633 28.0902C22.6778 30.2481 18.5209 31.0477 14.4253 29.9503C6.80861 27.9094 2.28851 20.0804 4.3294 12.4636C6.37029 4.84694 14.1993 0.326841 21.816 2.36773C29.4327 4.40862 33.9528 12.2377 31.912 19.8544C31.3923 21.7937 30.4975 23.5322 29.3264 25.0128L35.9721 32.0186L32.6503 35.1395L25.9633 28.0902ZM27.4823 18.6674C26.0969 23.8377 20.7825 26.9059 15.6123 25.5206C10.442 24.1352 7.37374 18.8208 8.75911 13.6506C10.1445 8.48033 15.4589 5.41207 20.6291 6.79744C25.7994 8.1828 28.8676 13.4972 27.4823 18.6674Z" fill="#718093"/>
</svg>
